<?xml version="1.0" encoding="utf-8"?>
<!-- Generator: Adobe Illustrator 24.3.0, SVG Export Plug-In . SVG Version: 6.00 Build 0)  -->
<svg version="1.1" id="Layer_1" xmlns="http://www.w3.org/2000/svg" xmlns:xlink="http://www.w3.org/1999/xlink" x="0px" y="0px"
	 viewBox="0 0 128.79 71.59" style="enable-background:new 0 0 128.79 71.59;" xml:space="preserve">
<style type="text/css">
	.st0{fill:#1D1D1B;}
	.st1{fill:#1D1D1B;stroke:#1D1D1B;stroke-width:0.35;stroke-miterlimit:10;}
</style>
<g>
	<g>
		<g>
			<path class="st0" d="M65.64,27.98h7.09V27.5h-0.25c-1.5,0-2-0.4-2-2.18v-10.4c0-1.55,0.4-2,1.9-2.05V12.4h-6.44v0.48h0.48
				c1.55,0,1.98,0.5,1.98,1.83v4.94h-8.89v-4.36c0-1.93,0.3-2.41,2.08-2.41V12.4h-5.96v0.48c1.38,0.1,1.8,0.48,1.8,1.78v11.03
				c0,1.43-0.5,1.83-1.98,1.83H55.3V28h6.29v-0.48h-0.08c-1.68,0-2-0.58-2-2.2v-4.76h8.89v5.09c0,1.3-0.35,1.88-1.98,1.88h-0.78
				V27.98z"/>
			<path class="st0" d="M123.2,12.02h-0.48c-0.02,0.15-0.13,0.25-0.28,0.3s-0.33,0.08-0.5,0.08h-5.7h-0.09h-0.32h-0.09h-5.7
				c-0.18,0-0.35-0.02-0.5-0.08c-0.15-0.05-0.25-0.15-0.28-0.3h-0.48l-0.01,0.33l-0.28,3.73h0.47c0.14-2.33,0.56-2.78,1.7-2.78H115
				v12.33c0,1.3-0.35,1.88-1.98,1.88h-0.78v0.48h7.09V27.5h-0.25c-1.5,0-2-0.4-2-2.18V13.3h4.22c1.14,0,1.28,0.45,1.42,2.78h0.47
				v-3.73L123.2,12.02z"/>
			<path class="st0" d="M99.98,26.15V14.6c0-1.55,0.43-1.73,2.05-1.73h0.93V12.4h-7.39v0.48h0.35c1.58,0,1.98,0.55,1.98,1.88v11.1
				c0,1.28-0.43,1.65-1.58,1.65h-0.83v0.48h11.2l1.37-3.05h-0.53c-0.86,1.5-1.21,2.15-2.87,2.15h-3.68
				C100.25,27.08,99.98,26.83,99.98,26.15"/>
			<path class="st0" d="M92.81,12.87V12.4h-5.86v0.47c2.07,0.1,2.44,0.52,2.44,2.92c0,0,0,4.88,0,6.2c0,4.03-2.58,5.29-4.85,5.29
				c-2.37,0-4.85-1.87-4.85-5.29c0-1.37,0-7.25,0-7.25c0-1.45,0.6-1.87,1.97-1.87h0.22V12.4h-6.41v0.47
				c1.7,0.03,2.14,0.27,2.14,1.87c0,0,0,6.09,0,7.33c0,5.03,3.93,6.52,6.46,6.52c4.58,0,6.46-3.4,6.46-6.52c0-1.02,0-6.91,0-6.91
				C90.54,13.57,91.14,12.89,92.81,12.87"/>
		</g>
		<g>
			<g>
				<path class="st0" d="M56.68,40.2v-4.82h0.6v4.82H56.68z"/>
				<path class="st0" d="M62.69,40.2l-2.81-3.85v3.85h-0.6v-4.82h0.61l2.78,3.77v-3.77h0.6v4.82H62.69z"/>
				<path class="st0" d="M66.17,40.2v-4.29h-1.53v-0.53h3.66v0.53h-1.53v4.29H66.17z"/>
				<path class="st0" d="M69.68,40.2v-4.82h3.16v0.53h-2.56v1.55h2.51V38h-2.51v1.66h2.56v0.53h-3.16V40.2z"/>
				<path class="st0" d="M77.45,40.2l-1.22-1.92h-0.97v1.92h-0.6v-4.82h1.94c0.88,0,1.52,0.56,1.52,1.45c0,0.87-0.6,1.34-1.26,1.4
					l1.3,1.97C78.16,40.2,77.45,40.2,77.45,40.2z M77.49,36.83c0-0.55-0.4-0.92-0.97-0.92h-1.27v1.84h1.27
					C77.1,37.76,77.49,37.38,77.49,36.83z"/>
				<path class="st0" d="M83.34,40.2l-2.81-3.85v3.85h-0.6v-4.82h0.61l2.78,3.77v-3.77h0.6v4.82H83.34z"/>
				<path class="st0" d="M89.35,40.2l-0.43-1.08h-2.4L86.1,40.2h-0.69l1.94-4.82h0.74l1.94,4.82H89.35z M87.72,36l-1.02,2.6h2.05
					L87.72,36z"/>
				<path class="st0" d="M92.1,40.2v-4.29h-1.53v-0.53h3.66v0.53H92.7v4.29H92.1z"/>
				<path class="st0" d="M95.9,40.2v-4.82h0.6v4.82H95.9z"/>
				<path class="st0" d="M98.16,37.8c0-1.42,0.97-2.49,2.39-2.49s2.4,1.07,2.4,2.49c0,1.42-0.98,2.49-2.4,2.49
					C99.13,40.29,98.16,39.22,98.16,37.8z M102.33,37.8c0-1.13-0.7-1.96-1.78-1.96c-1.09,0-1.77,0.83-1.77,1.96
					c0,1.12,0.69,1.96,1.77,1.96C101.63,39.75,102.33,38.92,102.33,37.8z"/>
				<path class="st0" d="M107.88,40.2l-2.81-3.85v3.85h-0.6v-4.82h0.61l2.78,3.77v-3.77h0.6v4.82H107.88z"/>
				<path class="st0" d="M113.75,40.2l-0.43-1.08h-2.4l-0.43,1.08h-0.69l1.94-4.82h0.74l1.94,4.82H113.75z M112.12,36l-1.02,2.6
					h2.05L112.12,36z"/>
				<path class="st0" d="M116,40.2v-4.82h0.6v4.29h2.24v0.53H116z"/>
			</g>
			<g>
				<path class="st0" d="M56.68,49.79v-4.82h2.15c0.84,0,1.35,0.51,1.35,1.23c0,0.61-0.4,1.01-0.85,1.11
					c0.51,0.08,0.94,0.61,0.94,1.19c0,0.77-0.51,1.3-1.4,1.3L56.68,49.79L56.68,49.79z M59.56,46.28c0-0.43-0.29-0.78-0.83-0.78
					h-1.45v1.55h1.45C59.27,47.05,59.56,46.72,59.56,46.28z M59.66,48.42c0-0.44-0.3-0.83-0.89-0.83h-1.48v1.66h1.48
					C59.32,49.25,59.66,48.93,59.66,48.42z"/>
				<path class="st0" d="M61.67,47.92v-2.95h0.61v2.94c0,0.88,0.47,1.44,1.36,1.44s1.37-0.56,1.37-1.44v-2.94h0.61v2.94
					c0,1.2-0.67,1.97-1.97,1.97C62.33,49.88,61.67,49.1,61.67,47.92z"/>
				<path class="st0" d="M66.74,49.11l0.36-0.46c0.31,0.36,0.83,0.69,1.51,0.69c0.86,0,1.13-0.46,1.13-0.84
					c0-1.24-2.86-0.55-2.86-2.27c0-0.8,0.71-1.35,1.66-1.35c0.73,0,1.3,0.25,1.71,0.68L69.89,46c-0.36-0.4-0.87-0.58-1.4-0.58
					c-0.57,0-0.99,0.31-0.99,0.77c0,1.08,2.86,0.46,2.86,2.26c0,0.69-0.48,1.42-1.78,1.42C67.76,49.88,67.14,49.56,66.74,49.11z"/>
				<path class="st0" d="M71.99,49.79v-4.82h0.6v4.82H71.99z"/>
				<path class="st0" d="M77.99,49.79l-2.81-3.85v3.85h-0.6v-4.82h0.61l2.78,3.77v-3.77h0.6v4.82H77.99z"/>
				<path class="st0" d="M80.43,49.79v-4.82h3.16v0.53h-2.56v1.55h2.51v0.54h-2.51v1.66h2.56v0.53h-3.16V49.79z"/>
				<path class="st0" d="M85.12,49.11l0.36-0.46c0.31,0.36,0.83,0.69,1.51,0.69c0.86,0,1.13-0.46,1.13-0.84
					c0-1.24-2.86-0.55-2.86-2.27c0-0.8,0.71-1.35,1.66-1.35c0.73,0,1.3,0.25,1.71,0.68L88.27,46c-0.36-0.4-0.87-0.58-1.4-0.58
					c-0.57,0-0.99,0.31-0.99,0.77c0,1.08,2.86,0.46,2.86,2.26c0,0.69-0.48,1.42-1.78,1.42C86.14,49.88,85.52,49.56,85.12,49.11z"/>
				<path class="st0" d="M90.08,49.11l0.36-0.46c0.31,0.36,0.83,0.69,1.51,0.69c0.86,0,1.13-0.46,1.13-0.84
					c0-1.24-2.86-0.55-2.86-2.27c0-0.8,0.71-1.35,1.66-1.35c0.73,0,1.3,0.25,1.71,0.68L93.23,46c-0.36-0.4-0.87-0.58-1.4-0.58
					c-0.57,0-0.99,0.31-0.99,0.77c0,1.08,2.86,0.46,2.86,2.26c0,0.69-0.48,1.42-1.78,1.42C91.1,49.88,90.48,49.56,90.08,49.11z"/>
				<path class="st0" d="M97.64,49.11L98,48.65c0.31,0.36,0.83,0.69,1.51,0.69c0.86,0,1.13-0.46,1.13-0.84
					c0-1.24-2.86-0.55-2.86-2.27c0-0.8,0.71-1.35,1.66-1.35c0.73,0,1.3,0.25,1.71,0.68L100.79,46c-0.36-0.4-0.87-0.58-1.4-0.58
					c-0.57,0-0.99,0.31-0.99,0.77c0,1.08,2.86,0.46,2.86,2.26c0,0.69-0.48,1.42-1.78,1.42C98.66,49.88,98.04,49.56,97.64,49.11z"/>
				<path class="st0" d="M102.41,47.38c0-1.48,1.09-2.49,2.48-2.49c0.85,0,1.45,0.4,1.83,0.95l-0.5,0.28
					c-0.27-0.41-0.78-0.7-1.33-0.7c-1.06,0-1.86,0.8-1.86,1.96c0,1.14,0.8,1.96,1.86,1.96c0.55,0,1.06-0.3,1.33-0.7l0.51,0.27
					c-0.4,0.56-0.98,0.96-1.84,0.96C103.5,49.88,102.41,48.86,102.41,47.38z"/>
				<path class="st0" d="M111.64,49.79v-2.21h-2.82v2.21h-0.6v-4.82h0.6v2.07h2.82v-2.07h0.6v4.82H111.64z"/>
				<path class="st0" d="M113.75,47.38c0-1.42,0.97-2.49,2.39-2.49s2.4,1.07,2.4,2.49c0,1.42-0.98,2.49-2.4,2.49
					C114.72,49.88,113.75,48.8,113.75,47.38z M117.93,47.38c0-1.13-0.7-1.96-1.78-1.96c-1.09,0-1.77,0.83-1.77,1.96
					c0,1.12,0.69,1.96,1.77,1.96C117.22,49.34,117.93,48.5,117.93,47.38z"/>
				<path class="st0" d="M119.71,47.38c0-1.42,0.97-2.49,2.39-2.49s2.4,1.07,2.4,2.49c0,1.42-0.98,2.49-2.4,2.49
					C120.68,49.88,119.71,48.8,119.71,47.38z M123.89,47.38c0-1.13-0.7-1.96-1.78-1.96c-1.09,0-1.77,0.83-1.77,1.96
					c0,1.12,0.69,1.96,1.77,1.96C123.19,49.34,123.89,48.5,123.89,47.38z"/>
				<path class="st0" d="M125.94,49.79v-4.82h0.6v4.29h2.24v0.53H125.94z"/>
			</g>
		</g>
	</g>
	<path class="st1" d="M29.57,7.5V5.46L24.11,0l-5.46,5.46V7.5H0v30.65c0,12.56,10.22,22.78,22.78,22.78h1.1v7.28
		c0,1.54,1.25,2.79,2.79,2.79v-0.45c-1.29,0-2.34-1.05-2.34-2.34v-7.28h1.11c12.56,0,22.78-10.22,22.78-22.78V7.5H29.57z
		 M24.33,0.87l4.78,4.78v9.86l-4.78,4.78V0.87z M23.88,32.32v2.88l-2.25,2.25L17,32.83l3.69-3.7L23.88,32.32z M21.02,28.82
		l2.86-2.86v5.72L21.02,28.82z M23.88,35.84v3.85l-1.93-1.93L23.88,35.84z M24.33,35.85l1.92,1.92l-1.92,1.92V35.85z M24.33,35.22
		v-2.86l3.19-3.19l3.68,3.68l-4.63,4.62L24.33,35.22z M24.33,31.71v-5.74l2.87,2.87L24.33,31.71z M23.88,25.32L20.7,28.5L8.02,15.82
		h7.55l8.22,8.22l0.09,0.09C23.88,24.13,23.88,25.32,23.88,25.32z M20.38,28.82l-3.7,3.7l-9.01-8.99v-7.41L20.38,28.82z
		 M21.31,37.77l-4.66,4.66L8.5,34.31v-7.52l6.1,6.1l0.13,0.13h0.19h1.63L21.31,37.77z M23.82,50.23l-0.03,0.03l-1.47,1.47H16.7
		l-7.37-7.37v-6.79l5.22,5.21l0.13,0.13h0.19h1.61L23.82,50.23z M16.97,42.76l4.66-4.66l2.25,2.24v9.32L16.97,42.76z M24.33,40.34
		l2.24-2.24l4.66,4.66l-6.91,6.9v-9.32H24.33z M31.72,42.92h1.61h0.19l0.13-0.13l5.22-5.21v6.78l-7.37,7.37h-5.61l-1.47-1.47
		l-0.03-0.03L31.72,42.92z M31.56,42.44l-4.66-4.66l4.75-4.75h1.62h0.19l0.13-0.13l6.13-6.12v7.51L31.56,42.44z M31.52,32.52
		l-3.68-3.68l12.69-12.69v7.36L31.52,32.52z M27.52,28.52l-3.19-3.19v-1.2l0.09-0.09l8.22-8.22h7.58L27.52,28.52z M19.1,5.65
		l4.78-4.78v19.42L19.1,15.5V5.65z M22.78,60.48c-12.31,0-22.33-10.02-22.33-22.33V7.95h18.19v7.74l5.24,5.24v2.57l-8.13-8.13H7.22
		v8.35l8.87,8.86h-1.18L8.05,25.7v8.8l7.98,7.96h-1.16l-5.99-5.98v8.07l7.63,7.63h5.99l1.38-1.38v9.67L22.78,60.48L22.78,60.48z
		 M47.77,38.15c0,12.31-10.02,22.33-22.33,22.33h-1.11v-9.67l1.37,1.37h5.99l7.64-7.63v-8.06l-6,5.98h-1.16l7.99-7.98V25.7
		l-6.9,6.89H32.1l8.88-8.87v-8.34h-8.52l-8.13,8.13v-2.57l5.23-5.23V7.95h18.21C47.77,7.95,47.77,38.15,47.77,38.15z"/>
</g>
</svg>
