<svg width="485" height="290" viewBox="0 0 485 290" fill="none" xmlns="http://www.w3.org/2000/svg">
<g clip-path="url(#clip0_2292_16)">
<path d="M119.389 216.766C116.717 216.766 118.562 216.702 116.08 216.702C85.3413 216.702 62.3034 195.506 62.3034 136.253V48.9079C62.3034 18.9638 75.5412 7.59736 94.1864 7.59736V4.02344H0V7.53571C16.3558 7.85452 22.2742 21.8384 22.2742 40.1625V126.294C22.2742 191.164 53.2038 220.47 109.334 220.47H119.326L119.389 216.768V216.766Z" fill="black"/>
<path d="M308.654 156.493C308.273 123.995 300.953 116.97 268.625 116.651V113.46C301.017 113.141 308.273 106.182 308.654 73.6182H311.709C312.09 106.116 319.346 113.076 351.738 113.396V116.653C319.346 116.972 312.09 123.931 311.709 156.495H308.654V156.493Z" fill="black"/>
<path d="M134.981 216.766C164.255 216.766 177.175 196.781 177.175 168.625C177.175 134.849 177.175 168.625 177.175 168.625V45.9716C177.175 17.176 162.793 7.59912 145.355 7.59912V4.02344H311.773L311.837 49.3553H308.91C303.947 22.7315 293.572 12.3232 259.844 12.3232H252.016C220.259 12.3232 214.023 22.4743 214.023 51.0146V77.5116C214.023 112.053 228.088 113.522 254.625 113.522V116.779C228.086 116.779 214.023 119.652 214.023 154.577V165.942C214.023 208.72 219.432 211.529 255.199 211.529C276.391 211.529 302.165 206.102 308.847 176.796H311.901V220.532H134.981V216.764V216.766Z" fill="black"/>
<path d="M370.957 216.765C400.231 216.765 407.614 197.802 394.313 168.113L349.51 55.6133L362.493 0H364.975C364.975 0 426.643 146.851 441.916 176.542C458.08 207.891 471.636 216.765 485 216.765V220.405H370.957V216.765Z" fill="black"/>
<path d="M34.2389 282.912C26.5386 282.912 21.8931 277.357 21.8931 267.972V248.882H26.6667V267.717C26.6667 274.739 29.848 277.868 34.3671 277.868C38.8862 277.868 41.8761 274.803 41.8761 267.972V248.882H46.6498V267.717C46.6498 277.23 42.0043 282.912 34.2407 282.912" fill="black"/>
<path d="M71.0852 282.146H66.4397V267.333C66.4397 263.119 64.6577 260.884 61.666 260.884C58.6743 260.884 56.0654 263.438 56.0654 267.588V282.146H51.4199V256.671H55.8109V260.247C57.2751 257.501 59.6294 256.097 62.6211 256.097C67.7757 256.097 71.0852 260.12 71.0852 266.376V282.146Z" fill="black"/>
<path d="M81.7139 282.146H77.0684V256.671H81.7139V282.146ZM81.6507 253.669H77.0684V248.945H81.6507V253.669Z" fill="black"/>
<path d="M98.3244 282.337H94.2513L85.1499 256.733H90.05L96.2879 275.76L102.587 256.733H107.424L98.3244 282.337Z" fill="black"/>
<path d="M119.835 282.785C113.344 282.785 108.57 277.039 108.57 269.504C108.57 261.968 113.279 256.223 119.454 256.223C125.628 256.223 129.891 261.65 129.891 269.694C129.891 270.013 129.891 270.46 129.828 271.034V271.609H113.409C113.918 276.206 116.718 278.505 119.963 278.505C121.999 278.505 124.227 277.675 126.136 275.313L126.327 275.121L126.519 275.313L128.873 277.675L129.064 277.867L128.873 278.122C126.519 281.251 123.59 282.783 119.836 282.783L119.835 282.785ZM113.409 267.395H125.182C124.801 263.564 122.828 260.628 119.391 260.628C116.081 260.565 113.79 263.693 113.409 267.395Z" fill="black"/>
<path d="M138.545 282.146H133.963V256.67H138.417V262.16C139.944 258.203 142.682 256.286 146.054 256.286H146.69V261.776H146.181C141.981 261.776 138.543 265.097 138.543 271.993V282.144L138.545 282.146Z" fill="black"/>
<path d="M156.746 282.657C153.945 282.657 150.764 281.508 148.282 279.21L148.09 279.018L150.19 275.379L150.445 275.571C152.799 277.614 154.836 278.443 157.255 278.443C159.674 278.443 161.2 277.23 161.2 275.315C161.2 273.272 159.609 272.569 156.681 271.613C153.626 270.591 149.361 269.122 149.361 263.824C149.361 259.355 152.989 256.29 157.445 256.29C160.117 256.29 162.662 257.056 164.954 258.844L165.145 259.036L163.236 262.867L162.982 262.675C160.945 261.143 158.654 260.569 157.19 260.569C154.899 260.569 153.563 261.782 153.563 263.378C153.563 265.358 154.836 265.869 158.591 267.017C162.727 268.294 165.273 270.72 165.273 274.806C165.401 279.53 161.837 282.66 156.746 282.66" fill="black"/>
<path d="M199.83 290C196.712 290 193.784 287.83 193.784 287.83L195.311 283.551C195.311 283.551 197.729 285.339 199.511 285.339C201.993 285.339 203.138 283.807 204.03 281.189L194.356 256.672H199.384L206.258 274.869L211.921 256.672H216.822L207.657 282.785C205.875 287.446 203.329 290 199.893 290" fill="black"/>
<path d="M235.532 282.657C229.168 282.657 223.95 276.846 223.95 269.441C223.95 262.036 229.168 256.033 235.597 256.033C242.026 256.033 247.242 261.844 247.242 269.249C247.242 276.654 241.959 282.657 235.532 282.657ZM235.532 260.757C231.968 260.757 228.658 264.014 228.658 269.313C228.658 274.611 231.968 278.06 235.595 278.06C239.222 278.06 242.532 274.803 242.532 269.505C242.532 264.652 239.477 260.757 235.532 260.757Z" fill="black"/>
<path d="M256.533 282.146H251.824V261.268H248.897V256.67H251.824V255.011C251.824 248.818 256.598 247.541 258.761 247.541C260.415 247.541 261.498 247.86 262.388 248.179L262.579 248.242V252.839L262.325 252.711C261.624 252.392 260.48 252.073 259.716 252.073C257.362 252.073 256.47 253.35 256.47 255.457V256.605H262.516V261.139H256.535V282.146H256.533Z" fill="black"/>
<path d="M294.78 282.146H274.288V248.882H294.589V253.671H279.125V262.29H292.68V267.142H279.125V277.359H294.78V282.146Z" fill="black"/>
<path d="M305.853 282.593C301.717 282.593 297.389 279.975 297.389 274.357C297.389 268.738 301.334 265.354 307.253 265.354C309.544 265.354 311.452 265.865 312.535 266.312V265.93C312.535 263.249 311.199 260.758 307.507 260.758C304.835 260.758 302.352 261.717 300.316 263.057L300.061 263.249L298.725 258.844L298.917 258.652C300.89 257.375 304.199 256.098 307.572 256.098C310.627 256.098 313.173 257.056 314.763 258.907C316.291 260.695 317.181 263.186 317.181 266.441V282.02H313.108V278.764C312.216 280.678 309.544 282.595 305.853 282.595V282.593ZM302.098 274.231C302.098 276.849 304.008 278.255 306.489 278.255C310.434 278.255 312.662 275.382 312.662 272.125V270.719C311.643 270.082 309.798 269.634 307.762 269.634C304.898 269.698 302.098 271.103 302.098 274.231Z" fill="black"/>
<path d="M392.85 282.146H387.695L384.577 273.718H370.767L367.649 282.146H362.558L375.859 248.882H379.549L392.85 282.146ZM382.732 268.93L377.577 255.841L372.486 268.93H382.732Z" fill="black"/>
<path d="M429.698 289.936C426.008 289.936 422.698 288.786 419.77 286.424L419.578 286.232L421.552 282.019L421.806 282.211C424.224 284.254 426.961 285.339 429.889 285.339C434.663 285.339 436.889 282.019 436.889 277.55V275.507C435.425 278.635 432.244 280.167 429.062 280.167C423.971 280.167 418.69 275.699 418.69 268.229C418.69 260.758 423.971 256.098 429.062 256.098C432.309 256.098 435.618 257.63 437.146 260.503V256.672H441.282V277.487C441.282 281.318 440.327 284.319 438.482 286.489C436.508 288.724 433.264 289.936 429.7 289.936H429.698ZM429.637 260.822C426.264 260.822 423.4 263.439 423.4 268.1C423.4 272.761 426.392 275.57 429.637 275.57C433.264 275.57 436.447 272.569 436.447 268.227C436.447 263.055 433.011 260.82 429.637 260.82" fill="black"/>
<path d="M451.081 282.146H446.435V248.945H451.081V282.146Z" fill="black"/>
<path d="M187.928 282.656C183.855 282.656 181.373 280.039 181.373 275.313V261.394H178.381V256.733H181.308V249.646H186.016V256.733H192.317V261.394H186.016V274.099C186.016 276.525 186.843 277.93 188.817 277.93C189.898 277.93 190.916 277.675 191.68 277.228L192.063 277.036V281.504L191.871 281.568C190.662 282.271 189.389 282.653 187.926 282.653" fill="black"/>
<path d="M349.32 282.529C345.247 282.529 342.765 279.912 342.765 275.186V261.267H339.773V256.67H342.7V249.582H347.473V256.67H353.774V261.331H347.473V274.036C347.473 276.398 348.3 277.867 350.274 277.867C351.355 277.867 352.373 277.612 353.137 277.164L353.518 276.972V281.443L353.327 281.506C352.054 282.209 350.781 282.528 349.317 282.528" fill="black"/>
<path d="M414.933 282.146H410.287V267.333C410.287 263.119 408.505 260.884 405.514 260.884C402.522 260.884 399.913 263.438 399.913 267.588V282.146H395.268V256.671H399.659V260.247C401.123 257.501 403.477 256.097 406.469 256.097C411.623 256.097 414.933 260.12 414.933 266.376V282.146Z" fill="black"/>
<path d="M174.438 282.211H169.792V256.672H174.438V282.211ZM174.438 253.67H169.856V248.946H174.438V253.67Z" fill="black"/>
<path d="M461.2 282.145H456.555V256.67H461.2V282.145ZM461.137 253.669H456.555V249.008H461.137V253.669Z" fill="black"/>
<path d="M328.765 282.53C325.965 282.53 322.783 281.381 320.301 279.083L320.109 278.891L322.209 275.252L322.464 275.444C324.818 277.487 326.855 278.316 329.274 278.316C331.693 278.316 333.219 277.103 333.219 275.188C333.219 273.145 331.628 272.442 328.7 271.486C325.645 270.464 321.445 268.995 321.445 263.697C321.445 259.228 325.073 256.163 329.529 256.163C332.201 256.163 334.746 256.929 337.038 258.717L337.229 258.909L335.32 262.74L335.129 262.548C333.093 261.016 330.801 260.442 329.337 260.442C327.046 260.442 325.71 261.655 325.71 263.251C325.71 265.231 326.983 265.742 330.738 266.89C334.875 268.167 337.483 270.593 337.483 274.743C337.42 279.403 333.856 282.532 328.765 282.532" fill="black"/>
<path d="M473.609 282.722C469.536 282.722 465.145 280.104 465.145 274.485C465.145 268.866 469.09 265.483 475.01 265.483C477.301 265.483 479.21 265.994 480.293 266.441V266.059C480.293 263.376 478.957 260.887 475.201 260.887C472.529 260.887 470.047 261.845 468.01 263.186L467.756 263.378L466.42 258.973L466.611 258.781C468.584 257.44 471.892 256.227 475.266 256.227C478.321 256.227 480.867 257.185 482.458 259.036C483.985 260.824 484.875 263.315 484.875 266.57V282.084H480.802V279.019C479.975 280.744 477.301 282.722 473.611 282.722H473.609ZM469.855 274.357C469.855 276.974 471.764 278.38 474.246 278.38C478.191 278.38 480.419 275.57 480.419 272.314V270.91C479.401 270.272 477.556 269.825 475.519 269.825C472.656 269.761 469.855 271.229 469.855 274.359V274.357Z" fill="black"/>
</g>
<defs>
<clipPath id="clip0_2292_16">
<rect width="485" height="290" fill="white"/>
</clipPath>
</defs>
</svg>
