<svg width="695" height="173" viewBox="0 0 695 173" fill="none" xmlns="http://www.w3.org/2000/svg">
<g clip-path="url(#clip0_2_32)">
<path d="M35.9541 168.438L0 52.3637H30.7155L62.3356 155.696L93.0888 52.3637H124.257L88.0763 168.438H35.9541Z" fill="black"/>
<path d="M272.407 168.438V0H302.67V168.438H272.407Z" fill="black"/>
<path d="M326.451 77.5088C331.539 68.1595 338.738 60.8836 348.084 55.6435C357.431 50.4034 367.983 47.8021 379.817 47.8021C391.651 47.8021 401.601 50.3657 410.533 55.5304C419.502 60.6951 426.437 67.971 431.374 77.3957C436.311 86.8204 438.686 97.5646 438.535 109.704C438.686 111.212 438.686 112.87 438.535 114.604C438.384 116.339 438.233 117.847 438.083 119.053H349.554C350.458 125.122 352.644 130.4 356.149 134.886C359.654 139.373 364.064 142.841 369.453 145.367C374.842 147.855 380.722 149.137 387.091 149.137C394.817 149.137 401.714 147.553 407.782 144.349C413.849 141.144 418.334 137.148 421.198 132.285L441.437 144.575C438.723 150.192 434.54 155.131 428.924 159.391C423.309 163.651 416.714 166.968 409.138 169.419C401.563 171.831 393.498 173.075 385.018 173.075C372.43 173.075 361.049 170.323 350.873 164.895C340.697 159.428 332.821 151.889 327.205 142.238C321.59 132.587 318.725 121.654 318.575 109.327C318.725 97.4892 321.326 86.8958 326.414 77.5842L326.451 77.5088ZM402.807 85.0109C400.056 80.8263 396.739 77.5465 392.782 75.0961C388.825 72.6834 384.377 71.4393 379.365 71.4393C374.353 71.4393 369.604 72.608 365.609 74.983C361.576 77.358 358.184 80.6001 355.358 84.7847C352.531 88.9693 350.685 93.7947 349.78 99.2234H407.819C407.216 93.9078 405.558 89.1578 402.807 85.0109Z" fill="black"/>
<path d="M457.869 168.438V52.3637H487.001V69.2151C490.318 62.3916 494.916 57.1138 500.757 53.3816C506.599 49.6494 513.307 47.8021 520.883 47.8021C526.8 47.8021 532.34 48.7823 537.503 50.7426C542.666 52.703 547.189 55.6435 551.033 59.4888C554.915 63.3718 557.967 67.7071 560.266 72.5703C562.377 67.4055 565.392 62.9948 569.274 59.3757C573.155 55.7189 577.565 52.9292 582.577 50.9688C587.59 49.0085 592.828 47.9906 598.293 47.9906C606.924 47.9906 614.612 50.0264 621.283 54.1355C627.953 58.2447 633.23 63.9749 637.112 71.3262C640.993 78.6775 642.915 87.0843 642.915 96.4713V168.401H612.426V101.297C612.426 96.2829 611.446 91.7213 609.449 87.6498C607.489 83.5406 604.738 80.3362 601.27 77.9612C597.766 75.6239 593.771 74.4175 589.21 74.4175C584.349 74.4175 580.09 75.5862 576.472 77.9612C572.816 80.2985 569.99 83.5029 567.955 87.5367C565.919 91.5705 564.864 96.1698 564.864 101.297V168.438H534.601V101.297C534.601 95.8305 533.696 91.1181 531.85 87.1974C530.041 83.2391 527.327 80.1477 523.784 77.8481C520.204 75.5862 516.247 74.4175 511.837 74.4175C506.976 74.4175 502.755 75.5108 499.212 77.735C495.632 79.9216 492.918 83.0506 491.034 87.0843C489.149 91.1181 488.207 95.8305 488.207 101.297V168.438H457.944H457.869Z" fill="black"/>
<path d="M664.925 168.438V52.3637H694.962V168.438H664.925Z" fill="black"/>
<path d="M214.33 84.6339C205.436 75.737 204.305 62.0523 210.863 51.8736C203.928 49.2347 196.429 47.7644 188.59 47.7644C154.03 47.7644 125.99 75.7747 125.99 110.382C125.99 144.99 153.992 173 188.59 173C223.187 173 251.189 144.99 251.189 110.382C251.189 102.541 249.719 95.0011 247.081 88.1022C236.943 94.6995 223.225 93.5308 214.33 84.6339Z" fill="#773FF0"/>
<path d="M251.34 47.6136C241.126 37.3973 224.544 37.3973 214.33 47.6136C213.011 48.9331 211.843 50.3657 210.863 51.8736C227.483 58.207 240.712 71.4393 247.043 88.0645C248.551 87.0843 249.983 85.9534 251.302 84.5962C261.515 74.3798 261.515 57.7923 251.302 47.5759L251.34 47.6136Z" fill="#773FF0"/>
</g>
<defs>
<clipPath id="clip0_2_32">
<rect width="695" height="173" fill="white"/>
</clipPath>
</defs>
</svg>
