<svg xmlns="http://www.w3.org/2000/svg" xmlns:xlink="http://www.w3.org/1999/xlink" width="200" zoomAndPan="magnify" viewBox="0 0 150 60" height="80" preserveAspectRatio="xMidYMid meet" version="1.2"><g id="5b43eae4d2"><path style=" stroke:none;fill-rule:nonzero;fill:#d73648;fill-opacity:1;" d="M 13.828125 1.585938 L 133.414062 1.585938 L 133.414062 57.699219 L 13.828125 57.699219 Z M 13.828125 1.585938 "/><path style=" stroke:none;fill-rule:nonzero;fill:#ffffff;fill-opacity:1;" d="M 125.429688 8.582031 L 113.878906 8.582031 C 114.269531 12.285156 114.410156 16.011719 114.292969 19.738281 C 114.292969 23.582031 113.972656 30.09375 113.972656 31.242188 C 113.902344 31.816406 114.316406 32.324219 114.894531 32.371094 C 114.984375 32.371094 115.078125 32.371094 115.167969 32.371094 L 118.113281 32.371094 C 117.929688 31.839844 117.8125 31.289062 117.792969 30.734375 C 117.539062 27.285156 117.445312 23.765625 117.445312 20.335938 L 119.21875 20.222656 C 121.058594 20.105469 122.921875 20.335938 124.691406 20.867188 C 124.878906 20.5 124.992188 20.085938 125.039062 19.671875 C 124.921875 18.957031 124.234375 18.472656 123.519531 18.589844 C 123.496094 18.589844 123.449219 18.589844 123.429688 18.613281 L 117.445312 18.613281 C 117.445312 15.804688 117.5625 13 117.675781 10.238281 L 119.539062 10.238281 C 121.195312 10.238281 125.519531 10.238281 126.832031 11.042969 C 126.949219 10.628906 126.972656 10.191406 126.949219 9.753906 C 126.878906 9.042969 126.257812 8.488281 125.519531 8.558594 C 125.476562 8.558594 125.453125 8.558594 125.429688 8.582031 Z M 110.683594 9.800781 L 100.652344 9.800781 C 101.203125 10.789062 101.179688 17.738281 101.179688 19.1875 C 101.179688 22.179688 100.90625 26.480469 100.90625 28.183594 C 100.8125 28.6875 101.15625 29.195312 101.6875 29.265625 C 101.734375 29.265625 101.777344 29.265625 101.800781 29.285156 L 104.769531 29.285156 C 104.425781 28.019531 104.265625 26.710938 104.285156 25.421875 C 104.285156 23.855469 104.285156 21.925781 104.285156 19.738281 C 104.699219 19.738281 105.484375 19.648438 106.035156 19.648438 C 107.578125 19.554688 109.140625 19.761719 110.613281 20.292969 C 110.613281 19.878906 110.730469 19.464844 110.730469 19.027344 C 110.707031 18.472656 110.246094 18.058594 109.691406 18.082031 C 109.648438 18.082031 109.601562 18.082031 109.53125 18.105469 L 104.265625 18.105469 C 104.265625 15.898438 104.378906 13.710938 104.449219 11.480469 L 106.378906 11.480469 C 108.429688 11.363281 110.5 11.640625 112.453125 12.285156 L 112.453125 12.171875 C 112.453125 10.90625 112.109375 9.800781 110.683594 9.800781 Z M 96.625 19.855469 C 96.625 18.242188 96.625 16.65625 96.71875 15.070312 C 96.71875 14.242188 96.832031 13.367188 96.832031 12.515625 C 96.785156 12.125 96.441406 11.824219 96.050781 11.871094 L 93.3125 11.871094 C 93.636719 14.332031 93.75 16.816406 93.679688 19.300781 C 93.679688 20.84375 93.679688 22.40625 93.589844 23.996094 C 93.589844 24.707031 93.589844 25.445312 93.589844 26.15625 C 93.566406 26.640625 93.910156 27.054688 94.394531 27.078125 C 94.417969 27.078125 94.441406 27.078125 94.464844 27.078125 C 95.335938 27.078125 96.164062 27.078125 97.039062 27.078125 C 96.695312 24.6875 96.558594 22.269531 96.578125 19.855469 Z M 123.175781 38.304688 L 121.75 38.304688 C 121.472656 39.203125 121.082031 40.03125 120.550781 40.8125 C 119.976562 41.800781 119.355469 42.769531 119.078125 43.136719 C 118.183594 41.757812 117.378906 40.328125 116.503906 38.925781 C 116.273438 38.488281 115.789062 38.234375 115.308594 38.304688 L 113.511719 38.304688 C 115.054688 40.375 116.457031 42.515625 117.8125 44.699219 L 117.8125 45.898438 C 117.8125 46.933594 117.699219 47.96875 117.699219 48.566406 C 117.722656 48.910156 118.042969 49.164062 118.390625 49.140625 C 118.414062 49.140625 118.4375 49.140625 118.457031 49.117188 L 119.90625 49.117188 C 119.769531 47.578125 119.746094 46.035156 119.746094 44.472656 C 120.527344 43.113281 121.425781 41.824219 122.324219 40.582031 C 122.714844 40.03125 123.105469 39.480469 123.519531 38.949219 C 123.566406 38.855469 123.589844 38.765625 123.589844 38.648438 C 123.589844 38.464844 123.449219 38.304688 123.265625 38.304688 C 123.222656 38.304688 123.199219 38.304688 123.175781 38.304688 Z M 112.59375 38.304688 L 104.65625 38.304688 C 104.078125 38.234375 103.527344 38.648438 103.457031 39.226562 C 103.457031 39.25 103.457031 39.269531 103.457031 39.292969 L 103.457031 39.847656 C 104.65625 39.6875 105.851562 39.640625 107.046875 39.664062 C 107.117188 41.042969 107.117188 42.238281 107.117188 43.550781 C 107.117188 45.757812 107 46.792969 107 48.429688 C 106.980469 48.820312 107.277344 49.140625 107.667969 49.1875 C 107.738281 49.1875 107.808594 49.1875 107.875 49.164062 L 109.234375 49.164062 C 109.070312 47.324219 109.027344 45.484375 109.070312 43.644531 C 109.070312 42.355469 109.070312 40.675781 109.070312 39.730469 C 110.128906 39.730469 111.164062 39.871094 111.925781 39.871094 C 112.363281 39.800781 112.683594 39.386719 112.613281 38.949219 C 112.613281 38.925781 112.613281 38.902344 112.613281 38.902344 L 112.613281 38.304688 Z M 101.664062 43.183594 C 101.664062 41.019531 101.777344 40.515625 101.777344 39.179688 C 101.871094 38.765625 101.59375 38.351562 101.179688 38.257812 C 101.089844 38.234375 100.996094 38.234375 100.882812 38.257812 L 99.59375 38.257812 C 99.730469 39.9375 99.800781 41.617188 99.753906 43.296875 C 99.753906 45.988281 99.640625 46.609375 99.640625 48.242188 C 99.570312 48.679688 99.871094 49.070312 100.308594 49.140625 C 100.351562 49.140625 100.421875 49.140625 100.46875 49.140625 L 101.824219 49.140625 C 101.710938 47.921875 101.640625 46.105469 101.640625 43.207031 Z M 91.816406 40.789062 C 91.863281 39.894531 92.621094 39.226562 93.519531 39.269531 C 93.542969 39.269531 93.589844 39.269531 93.613281 39.269531 C 94.578125 39.269531 95.476562 39.777344 96.003906 40.582031 C 96.304688 40.191406 96.511719 39.730469 96.578125 39.226562 C 96.578125 38.304688 94.484375 38.097656 93.796875 38.097656 C 91.886719 38.097656 90.046875 39.109375 90.046875 41.15625 C 90.046875 44.746094 95.152344 43.804688 95.152344 46.171875 C 95.199219 47.1875 94.394531 48.015625 93.40625 48.058594 C 93.335938 48.058594 93.265625 48.058594 93.199219 48.058594 C 91.957031 48.035156 90.804688 47.4375 90.09375 46.425781 C 89.953125 46.863281 89.863281 47.300781 89.816406 47.738281 C 89.769531 48.152344 90.023438 48.542969 90.390625 48.726562 C 91.105469 49.09375 91.886719 49.277344 92.691406 49.277344 C 94.855469 49.277344 96.925781 48.082031 96.925781 45.691406 C 96.878906 42.238281 91.816406 43.34375 91.816406 40.789062 Z M 76.171875 47.554688 C 75.113281 47.921875 74.011719 48.058594 72.90625 48.015625 L 72.148438 48.015625 C 71.734375 48.015625 71.734375 47.785156 71.734375 47.4375 C 71.734375 47.09375 71.734375 45.160156 71.734375 44.886719 L 71.734375 44.058594 C 73.066406 44.011719 74.378906 44.125 75.691406 44.402344 C 75.691406 44.125 75.691406 43.828125 75.691406 43.527344 C 75.691406 43.160156 75.390625 42.859375 75.046875 42.859375 C 75 42.859375 74.929688 42.859375 74.886719 42.882812 C 73.851562 42.882812 72.722656 43 71.6875 43 L 71.6875 41.089844 C 71.6875 40.558594 71.6875 39.984375 71.777344 39.433594 C 73.230469 39.363281 74.679688 39.5 76.105469 39.824219 C 76.105469 39.179688 76.105469 38.351562 75.160156 38.351562 L 69.480469 38.351562 C 69.59375 38.535156 69.6875 38.742188 69.707031 38.972656 C 69.800781 40.285156 69.800781 41.617188 69.800781 42.929688 C 69.800781 44.769531 69.707031 46.519531 69.707031 48.40625 C 69.640625 48.726562 69.824219 49.050781 70.144531 49.117188 C 70.214844 49.140625 70.285156 49.140625 70.351562 49.140625 L 75.367188 49.140625 C 75.78125 49.1875 76.148438 48.910156 76.195312 48.496094 C 76.195312 48.449219 76.195312 48.429688 76.195312 48.382812 L 76.195312 47.554688 Z M 67.199219 38.28125 L 65.683594 38.28125 C 65.707031 38.878906 65.589844 39.480469 65.3125 40.007812 C 64.464844 42.078125 63.335938 44.679688 62.484375 46.449219 C 61.933594 45.253906 61.058594 43.160156 60.34375 41.480469 C 59.976562 40.628906 59.699219 39.894531 59.332031 39.085938 C 59.101562 38.535156 58.550781 38.214844 57.953125 38.304688 L 56.550781 38.304688 C 58.230469 41.894531 59.90625 45.484375 61.402344 49.234375 L 62.828125 49.234375 C 64.257812 45.757812 65.890625 42.398438 67.476562 38.949219 C 67.5 38.878906 67.5 38.8125 67.476562 38.765625 C 67.546875 38.558594 67.429688 38.351562 67.222656 38.28125 C 67.246094 38.28125 67.222656 38.28125 67.199219 38.28125 Z M 40.605469 9.640625 C 38.558594 8.628906 36.304688 8.097656 34.027344 8.097656 C 26.503906 8.097656 21.511719 14.171875 21.511719 21.558594 C 21.511719 28.734375 26.984375 33.40625 33.980469 33.40625 C 36.578125 33.449219 39.15625 32.714844 41.34375 31.3125 L 41.066406 28.917969 C 39.523438 30.367188 37.523438 31.21875 35.429688 31.3125 C 29.265625 31.3125 25.121094 26.179688 25.121094 20.199219 C 25.121094 15.09375 28.042969 10.078125 33.65625 10.078125 C 35.542969 10.03125 37.386719 10.675781 38.855469 11.894531 C 39.664062 12.585938 40.238281 13.503906 40.492188 14.539062 C 41.203125 13.574219 41.710938 12.46875 41.917969 11.296875 C 41.800781 10.515625 41.320312 9.894531 40.605469 9.640625 Z M 54.269531 43.207031 C 54.269531 41.042969 54.386719 40.535156 54.386719 39.203125 C 54.480469 38.789062 54.226562 38.375 53.8125 38.28125 C 53.71875 38.257812 53.628906 38.257812 53.511719 38.28125 L 52.199219 38.28125 C 52.339844 39.960938 52.40625 41.640625 52.363281 43.320312 C 52.363281 46.011719 52.246094 46.632812 52.246094 48.265625 C 52.179688 48.703125 52.476562 49.09375 52.914062 49.164062 C 52.984375 49.164062 53.050781 49.164062 53.121094 49.164062 L 54.480469 49.164062 C 54.339844 47.921875 54.269531 46.105469 54.269531 43.207031 Z M 48.382812 38.328125 L 47.300781 38.328125 C 47.394531 40.144531 47.414062 41.917969 47.414062 43.804688 L 47.414062 45.691406 C 44.792969 43.296875 42.332031 40.742188 39.753906 38.234375 L 38.925781 38.234375 C 38.925781 38.742188 38.925781 39.269531 38.925781 39.800781 C 38.925781 41.894531 38.925781 44.769531 38.835938 46.105469 C 38.742188 47.4375 38.648438 47.898438 38.648438 48.679688 C 38.628906 48.933594 38.789062 49.140625 39.042969 49.164062 C 39.109375 49.164062 39.15625 49.164062 39.226562 49.140625 L 40.421875 49.140625 C 40.285156 47.992188 40.214844 46.816406 40.238281 45.667969 C 40.238281 44.332031 40.238281 43.066406 40.238281 41.710938 C 42.835938 44.265625 45.4375 46.65625 47.898438 49.347656 L 48.75 49.347656 C 48.75 47.507812 48.65625 45.757812 48.65625 43.894531 C 48.65625 42.882812 48.75 41.964844 48.773438 41.042969 C 48.796875 40.121094 48.910156 39.386719 48.910156 38.902344 C 48.957031 38.628906 48.796875 38.375 48.519531 38.328125 C 48.472656 38.328125 48.429688 38.328125 48.382812 38.328125 Z M 34.945312 38.328125 L 33.933594 38.328125 C 34.09375 39.316406 34.164062 40.308594 34.140625 41.296875 C 34.140625 41.941406 34.140625 43.113281 34.140625 44.058594 C 34.140625 46.265625 33.472656 48.015625 30.898438 48.015625 C 27.929688 48.015625 27.628906 46.21875 27.628906 43.6875 C 27.628906 42.054688 27.792969 40.101562 27.792969 38.789062 C 27.8125 38.511719 27.585938 38.28125 27.332031 38.28125 C 27.285156 38.28125 27.261719 38.28125 27.214844 38.28125 L 25.582031 38.28125 C 25.675781 39.480469 25.699219 40.285156 25.699219 42.148438 C 25.699219 42.929688 25.699219 44.011719 25.699219 44.816406 C 25.699219 48.035156 27.515625 49.324219 30.597656 49.324219 C 33.679688 49.324219 35.382812 47.761719 35.519531 44.746094 C 35.660156 41.757812 35.773438 39.800781 35.773438 38.855469 C 35.796875 38.535156 35.566406 38.234375 35.246094 38.214844 C 35.152344 38.214844 35.0625 38.214844 34.96875 38.234375 L 34.96875 38.328125 Z M 79.898438 9.894531 L 72.515625 9.960938 C 72.90625 10.582031 73.066406 11.710938 73.183594 13.964844 C 73.296875 15.621094 73.320312 17.300781 73.320312 18.980469 C 73.320312 21.027344 73.320312 23.050781 73.230469 25.101562 C 73.230469 26.226562 73.113281 27.355469 73.113281 28.457031 C 73.136719 28.941406 73.550781 29.285156 74.011719 29.265625 C 74.011719 29.265625 74.011719 29.265625 74.035156 29.265625 L 79.601562 29.265625 C 85.859375 29.265625 90.527344 25.8125 90.527344 19.277344 C 90.527344 12.746094 86.136719 9.894531 79.898438 9.894531 Z M 79.898438 27.585938 L 77.507812 27.585938 C 77.070312 27.675781 76.65625 27.378906 76.5625 26.964844 C 76.5625 26.917969 76.542969 26.847656 76.542969 26.800781 C 76.449219 26.15625 76.402344 25.515625 76.402344 24.871094 C 76.402344 23.605469 76.3125 21.71875 76.3125 20.152344 C 76.3125 17.253906 76.425781 14.378906 76.542969 11.480469 C 77.230469 11.386719 77.945312 11.320312 78.636719 11.34375 C 83.628906 11.34375 87.007812 14.171875 87.007812 19.417969 C 87.125 24.042969 84.914062 27.605469 79.921875 27.605469 Z M 84.226562 44.515625 C 85.765625 44.242188 86.894531 42.90625 86.964844 41.34375 C 86.964844 39.019531 84.9375 38.351562 82.984375 38.351562 L 80.359375 38.351562 C 79.945312 38.351562 79.53125 38.351562 79.070312 38.351562 C 79.234375 38.558594 79.300781 38.8125 79.324219 39.085938 C 79.417969 40.285156 79.324219 42.125 79.324219 43.644531 C 79.324219 44.746094 79.324219 45.828125 79.324219 46.886719 C 79.324219 47.394531 79.324219 47.921875 79.324219 48.429688 C 79.277344 48.773438 79.53125 49.09375 79.898438 49.140625 C 79.96875 49.140625 80.0625 49.140625 80.128906 49.117188 L 81.558594 49.117188 C 81.394531 47.714844 81.328125 46.289062 81.371094 44.886719 L 82.570312 44.886719 C 83.398438 46.242188 84.226562 47.484375 85.191406 48.796875 C 85.882812 49.855469 87.078125 50.453125 88.34375 50.359375 L 88.917969 50.359375 C 87.191406 48.566406 85.652344 46.609375 84.316406 44.492188 L 84.226562 44.492188 Z M 81.832031 43.941406 L 81.28125 43.941406 L 81.28125 42.859375 C 81.28125 42.054688 81.28125 40.078125 81.371094 39.269531 L 82.316406 39.269531 C 83.695312 39.109375 84.914062 40.101562 85.078125 41.480469 C 85.078125 41.550781 85.078125 41.59375 85.101562 41.664062 C 85.078125 43.4375 83.464844 43.941406 81.925781 43.941406 Z M 52.9375 25.996094 L 47.164062 12.699219 C 47.09375 12.214844 46.679688 11.871094 46.195312 11.871094 L 45.828125 11.871094 L 39.109375 26.15625 C 38.996094 26.363281 38.925781 26.617188 38.949219 26.871094 C 38.949219 27.125 39.269531 27.191406 39.5 27.191406 L 40.972656 27.191406 C 40.949219 27.078125 40.949219 26.964844 40.972656 26.847656 C 40.972656 26.570312 41.042969 26.273438 41.136719 26.019531 L 42.515625 22.523438 L 48.265625 22.523438 L 49.878906 26.433594 C 49.992188 26.871094 50.40625 27.171875 50.867188 27.148438 L 53.71875 27.148438 C 53.398438 26.847656 53.167969 26.457031 52.984375 26.066406 Z M 43.042969 21.210938 L 45.527344 15.550781 L 47.785156 21.210938 Z M 64.277344 21.648438 C 67.199219 20.890625 69.269531 18.265625 69.292969 15.253906 C 69.292969 11.203125 65.707031 9.730469 62.117188 9.730469 C 59.839844 9.730469 57.539062 9.730469 55.238281 9.824219 C 55.515625 10.535156 55.652344 11.273438 55.628906 12.03125 C 55.628906 14.816406 55.628906 17.324219 55.628906 19.257812 C 55.628906 24.617188 55.375 27.699219 55.375 28.710938 C 55.375 29.125 55.535156 29.195312 55.90625 29.195312 L 59.492188 29.195312 C 59.332031 28.871094 59.242188 28.527344 59.242188 28.160156 C 58.988281 26.226562 58.871094 24.25 58.871094 22.292969 C 59.632812 22.292969 60.507812 22.292969 61.265625 22.292969 C 62.253906 23.855469 63.496094 25.699219 64.855469 27.539062 C 66.972656 30.320312 69.847656 33.519531 73.230469 33.519531 C 74.058594 33.496094 74.886719 33.449219 75.714844 33.359375 C 71.777344 31.910156 66.671875 25.238281 64.324219 21.71875 Z M 60.78125 20.867188 L 58.828125 20.867188 L 58.828125 17.554688 C 58.828125 15.527344 58.828125 13.230469 58.988281 11.273438 C 59.632812 11.203125 60.300781 11.15625 60.941406 11.15625 C 63.796875 11.15625 66.121094 12.675781 66.121094 15.757812 C 66.210938 18.519531 64.050781 20.84375 61.265625 20.9375 C 61.128906 20.9375 60.988281 20.9375 60.828125 20.9375 Z M 60.78125 20.867188 "/><path style=" stroke:none;fill-rule:nonzero;fill:#ffffff;fill-opacity:1;" d="M 13.828125 57.699219 L 133.414062 57.699219 L 133.414062 60.507812 L 13.828125 60.507812 Z M 13.828125 57.699219 "/></g></svg>